<svg width="401" height="60" viewBox="0 0 401 60" fill="none" xmlns="http://www.w3.org/2000/svg">
<path d="M44.784 15.456L28.56 60H6.288L22.512 15.456H0.24L5.616 0.575998C33.648 0.575998 54.672 0.607998 68.688 0.671997L63.312 15.552L44.784 15.456ZM144.732 0.575998L139.356 15.456H94.716L92.028 22.848H126.012C128.572 22.848 130.588 23.904 132.06 26.016C133.596 28.128 133.916 30.4 133.02 32.832L126.684 50.304C125.596 53.312 123.772 55.68 121.212 57.408C118.716 59.136 115.868 60 112.668 60H56.22L61.596 45.12H106.236L108.924 37.728H74.94C72.38 37.728 70.332 36.672 68.796 34.56C67.324 32.448 67.036 30.176 67.932 27.744L74.268 10.368C75.356 7.36 77.148 4.992 79.644 3.264C82.204 1.472 85.084 0.575998 88.284 0.575998H144.732Z" fill="#5355D6"/>
<path d="M162.907 60L184.508 0.575998H240.764C243.324 0.575998 245.34 1.632 246.812 3.744C248.284 5.856 248.572 8.128 247.676 10.56L241.34 27.936C240.252 30.944 238.428 33.344 235.868 35.136C233.372 36.864 230.556 37.728 227.42 37.728H193.244L185.18 60H162.907ZM197.084 24.864H221.18L224.54 15.456H200.54L197.084 24.864ZM237.626 60L259.226 0.575998H315.482C318.042 0.575998 320.058 1.632 321.53 3.744C323.002 5.856 323.29 8.128 322.394 10.56L316.058 27.936C314.97 30.944 313.146 33.344 310.586 35.136C308.09 36.864 305.274 37.728 302.138 37.728H300.506L311.834 60H289.562L278.234 37.728H267.962L259.898 60H237.626ZM275.546 15.456L272.09 24.864H295.994L299.45 15.456H275.546ZM400.428 0.575998L382.38 50.208C381.292 53.216 379.468 55.616 376.908 57.408C374.412 59.136 371.596 60 368.46 60H314.22L332.268 10.368C333.356 7.36 335.148 4.992 337.644 3.264C340.204 1.472 343.052 0.575998 346.188 0.575998H400.428ZM341.868 45.12H361.932L372.78 15.456H352.716L341.868 45.12Z" fill="white"/>
</svg>
