<svg width="145" height="60" viewBox="0 0 145 60" fill="none" xmlns="http://www.w3.org/2000/svg">
<path d="M44.784 15.456L28.56 60H6.288L22.512 15.456H0.24L5.616 0.575998C33.648 0.575998 54.672 0.607998 68.688 0.671997L63.312 15.552L44.784 15.456ZM144.732 0.575998L139.356 15.456H94.716L92.028 22.848H126.012C128.572 22.848 130.588 23.904 132.06 26.016C133.596 28.128 133.916 30.4 133.02 32.832L126.684 50.304C125.596 53.312 123.772 55.68 121.212 57.408C118.716 59.136 115.868 60 112.668 60H56.22L61.596 45.12H106.236L108.924 37.728H74.94C72.38 37.728 70.332 36.672 68.796 34.56C67.324 32.448 67.036 30.176 67.932 27.744L74.268 10.368C75.356 7.36 77.148 4.992 79.644 3.264C82.204 1.472 85.084 0.575998 88.284 0.575998H144.732Z" fill="#5355D6"/>
</svg>
